<svg width="41" height="40" viewBox="0 0 41 40" fill="none" xmlns="http://www.w3.org/2000/svg">
<path d="M10.0834 5C9.39302 5 8.83337 5.55965 8.83337 6.25C8.83337 6.94035 9.39302 7.5 10.0834 7.5H30.9167C31.607 7.5 32.1667 6.94035 32.1667 6.25C32.1667 5.55965 31.607 5 30.9167 5H10.0834Z" fill="white"/>
<path d="M15.8694 23.698C16.3131 23.2543 17.0076 23.214 17.497 23.577L17.6372 23.698L19.67 25.7333V20.6152L19.6667 20.5728V14.2667L17.6338 16.3019L17.4937 16.423C17.0043 16.786 16.3099 16.7457 15.8661 16.3019C15.4223 15.8581 15.382 15.1637 15.7451 14.6744L15.8661 14.5342L19.8118 10.584C20.0213 10.2367 20.4382 10 20.9182 10C21.3383 10 21.71 10.1814 21.9367 10.4596L22.0247 10.5845L25.97 14.5342L26.091 14.6744C26.4137 15.1093 26.4177 15.7063 26.103 16.1453L25.97 16.3019L25.8298 16.423C25.3948 16.7457 24.7978 16.7497 24.3588 16.4349L24.2022 16.3019L22.1667 14.2667V19.3847L22.17 19.427V25.7333L24.2055 23.698C24.6492 23.2543 25.3437 23.214 25.833 23.577L25.9732 23.698C26.417 24.1418 26.4573 24.8363 26.0942 25.3257L25.9732 25.4658L22.0278 29.4155C21.8185 29.763 21.4017 30 20.9215 30C20.4415 30 20.0245 29.7633 19.815 29.416L15.8694 25.4658C15.3812 24.9777 15.3812 24.1862 15.8694 23.698Z" fill="white"/>
<path d="M8.83337 33.75C8.83337 33.0597 9.39302 32.5 10.0834 32.5H30.9167C31.607 32.5 32.1667 33.0597 32.1667 33.75C32.1667 34.4403 31.607 35 30.9167 35H10.0834C9.39302 35 8.83337 34.4403 8.83337 33.75Z" fill="white"/>
</svg>
