<svg width="40" height="40" viewBox="0 0 40 40" fill="none" xmlns="http://www.w3.org/2000/svg">
<path d="M10 4.16671C10 3.70647 10.3731 3.33337 10.8333 3.33337C11.2936 3.33337 11.6667 3.70647 11.6667 4.16671V9.16671C11.6667 9.62696 11.2936 10 10.8333 10C10.3731 10 10 9.62696 10 9.16671V4.16671Z" fill="white"/>
<path d="M23.3333 4.16671C23.3333 3.70647 23.7063 3.33337 24.1666 3.33337C24.6268 3.33337 24.9999 3.70647 24.9999 4.16671V9.16671C24.9999 9.62696 24.6268 10 24.1666 10C23.7063 10 23.3333 9.62696 23.3333 9.16671V4.16671Z" fill="white"/>
<path fill-rule="evenodd" clip-rule="evenodd" d="M11.6666 19.1667H9.99992V20.8333H11.6666V19.1667ZM9.99992 17.5C9.07942 17.5 8.33325 18.2462 8.33325 19.1667V20.8333C8.33325 21.7538 9.07942 22.5 9.99992 22.5H11.6666C12.5871 22.5 13.3333 21.7538 13.3333 20.8333V19.1667C13.3333 18.2462 12.5871 17.5 11.6666 17.5H9.99992Z" fill="white"/>
<path fill-rule="evenodd" clip-rule="evenodd" d="M18.3333 19.1667H16.6667V20.8333H18.3333V19.1667ZM16.6667 17.5C15.7462 17.5 15 18.2462 15 19.1667V20.8333C15 21.7538 15.7462 22.5 16.6667 22.5H18.3333C19.2538 22.5 20 21.7538 20 20.8333V19.1667C20 18.2462 19.2538 17.5 18.3333 17.5H16.6667Z" fill="white"/>
<path fill-rule="evenodd" clip-rule="evenodd" d="M25.0001 19.1667H23.3334V20.8333H25.0001V19.1667ZM23.3334 17.5C22.4129 17.5 21.6667 18.2462 21.6667 19.1667V20.8333C21.6667 21.7538 22.4129 22.5 23.3334 22.5H25.0001C25.9206 22.5 26.6667 21.7538 26.6667 20.8333V19.1667C26.6667 18.2462 25.9206 17.5 25.0001 17.5H23.3334Z" fill="white"/>
<path fill-rule="evenodd" clip-rule="evenodd" d="M11.6666 25.8333H9.99992V27.5H11.6666V25.8333ZM9.99992 24.1666C9.07942 24.1666 8.33325 24.9128 8.33325 25.8333V27.5C8.33325 28.4205 9.07942 29.1666 9.99992 29.1666H11.6666C12.5871 29.1666 13.3333 28.4205 13.3333 27.5V25.8333C13.3333 24.9128 12.5871 24.1666 11.6666 24.1666H9.99992Z" fill="white"/>
<path fill-rule="evenodd" clip-rule="evenodd" d="M18.3333 25.8333H16.6667V27.5H18.3333V25.8333ZM16.6667 24.1666C15.7462 24.1666 15 24.9128 15 25.8333V27.5C15 28.4205 15.7462 29.1666 16.6667 29.1666H18.3333C19.2538 29.1666 20 28.4205 20 27.5V25.8333C20 24.9128 19.2538 24.1666 18.3333 24.1666H16.6667Z" fill="white"/>
<path fill-rule="evenodd" clip-rule="evenodd" d="M7.50008 8.33329H27.5001C28.4206 8.33329 29.1667 9.07946 29.1667 9.99996V23.3333C29.7422 23.3333 30.3007 23.4062 30.8334 23.5433V9.99996C30.8334 8.15901 29.341 6.66663 27.5001 6.66663H7.50008C5.65913 6.66663 4.16675 8.15901 4.16675 9.99996V30C4.16675 31.8409 5.65913 33.3333 7.50008 33.3333H23.392C23.0936 32.8175 22.8623 32.2579 22.7101 31.6666H7.50008C6.57961 31.6666 5.83341 30.9205 5.83341 30V9.99996C5.83341 9.07946 6.57961 8.33329 7.50008 8.33329Z" fill="white"/>
<path fill-rule="evenodd" clip-rule="evenodd" d="M30 15.8333H5V14.1666H30V15.8333Z" fill="white"/>
<path fill-rule="evenodd" clip-rule="evenodd" d="M29.1667 35C31.9281 35 34.1667 32.7615 34.1667 30C34.1667 27.2386 31.9281 25 29.1667 25C26.4052 25 24.1667 27.2386 24.1667 30C24.1667 32.7615 26.4052 35 29.1667 35ZM29.1667 36.6667C32.8486 36.6667 35.8333 33.682 35.8333 30C35.8333 26.3181 32.8486 23.3334 29.1667 23.3334C25.4847 23.3334 22.5 26.3181 22.5 30C22.5 33.682 25.4847 36.6667 29.1667 36.6667Z" fill="white"/>
<path fill-rule="evenodd" clip-rule="evenodd" d="M29.1666 25.9823C29.6268 25.9823 29.9999 26.3554 29.9999 26.8156V30.3974L32.0428 31.8155C32.4209 32.0779 32.5147 32.5971 32.2522 32.9752C31.9898 33.3533 31.4705 33.447 31.0924 33.1846L28.3333 31.2694V26.8156C28.3333 26.3554 28.7063 25.9823 29.1666 25.9823Z" fill="white"/>
</svg>
