<svg width="40" height="40" viewBox="0 0 40 40" fill="none" xmlns="http://www.w3.org/2000/svg">
<path d="M33.3334 16.6667V11.6667C33.3334 9.82572 31.8411 8.33333 30.0001 8.33333H10.0001C8.15913 8.33333 6.66675 9.82572 6.66675 11.6667V16.6667M33.3334 16.6667V31.6667C33.3334 33.5077 31.8411 35 30.0001 35H10.0001C8.15913 35 6.66675 33.5077 6.66675 31.6667V16.6667M33.3334 16.6667H6.66675M13.3334 5V11.6667M26.6667 5V11.6667" stroke="white" stroke-width="2.5" stroke-linecap="round"/>
<path d="M14.1667 20H10.8333C10.3731 20 10 20.3731 10 20.8333V24.1667C10 24.6269 10.3731 25 10.8333 25H14.1667C14.6269 25 15 24.6269 15 24.1667V20.8333C15 20.3731 14.6269 20 14.1667 20Z" fill="white"/>
<path d="M21.6667 20H18.3333C17.8731 20 17.5 20.3731 17.5 20.8333V24.1667C17.5 24.6269 17.8731 25 18.3333 25H21.6667C22.1269 25 22.5 24.6269 22.5 24.1667V20.8333C22.5 20.3731 22.1269 20 21.6667 20Z" fill="white"/>
<path d="M29.1667 20H25.8333C25.3731 20 25 20.3731 25 20.8333V24.1667C25 24.6269 25.3731 25 25.8333 25H29.1667C29.6269 25 30 24.6269 30 24.1667V20.8333C30 20.3731 29.6269 20 29.1667 20Z" fill="white"/>
</svg>
