<svg width="37" height="36" viewBox="0 0 37 36" fill="none" xmlns="http://www.w3.org/2000/svg">
<path d="M19.331 12.0268C18.4631 11.1558 17.4064 10.4675 16.2317 10.0208C15.6771 10.6371 15.2994 11.3875 15.1417 12.2012C15.0988 12.4205 15.0731 12.6405 15.0613 12.8594C15.1578 12.8925 15.2523 12.928 15.3446 12.9682C16.368 13.4021 17.2466 14.1284 17.8623 15.0435C18.3568 15.7751 18.6851 16.6221 18.7957 17.5398C18.8246 17.7689 18.8386 18.0022 18.8386 18.2404C18.8386 19.0353 18.6787 19.7842 18.3902 20.4674C18.0319 21.3101 17.4772 22.0557 16.781 22.6355C16.633 22.7605 16.4774 22.8764 16.3165 22.9853C15.4015 23.6032 14.3094 23.9615 13.1175 23.9615C12.3247 23.9615 11.577 23.8011 10.8926 23.513C9.86703 23.0791 8.99164 22.3523 8.37374 21.4378C7.75794 20.5243 7.39963 19.4296 7.39963 18.2404C7.39963 17.446 7.55734 16.6983 7.84696 16.0133C8.23642 15.094 8.86396 14.2916 9.65244 13.6924C9.63739 13.4848 9.63093 13.2772 9.63093 13.0697C9.63093 12.0034 9.79827 10.9627 10.1169 9.979C8.89714 10.4226 7.80294 11.1279 6.90611 12.0269C5.31627 13.612 4.32929 15.8181 4.33253 18.2404C4.32936 20.6633 5.31634 22.8695 6.90611 24.455C8.22988 25.7809 9.98495 26.6836 11.9374 26.9459V29.6847H7.86622V32.0437H11.9374V36H14.2975V32.0436H18.3719V29.6846H14.2975V26.9458C16.2511 26.6836 18.0082 25.7808 19.331 24.4549C19.7729 24.013 20.1667 23.5248 20.5088 22.9965C21.3939 21.6261 21.9078 19.9885 21.9056 18.2404C21.9056 17.8301 21.8766 17.424 21.823 17.0282C21.5537 15.0864 20.6504 13.3431 19.331 12.0268Z" fill="white"/>
<path d="M25.0401 0V2.35905H28.6403L24.9199 6.07943C23.3536 4.88545 21.4709 4.28196 19.5979 4.28365C17.3547 4.28196 15.0966 5.14287 13.3844 6.85828C12.1593 8.08017 11.3719 9.58036 11.02 11.1558C11.0157 11.175 11.0136 11.1944 11.0082 11.2105C10.9942 11.2717 10.9824 11.3333 10.9707 11.3918C10.9492 11.5055 10.9299 11.6187 10.9117 11.7319C10.8999 11.8 10.8903 11.8714 10.8827 11.9394C10.8688 12.043 10.857 12.1492 10.8484 12.2553C10.8431 12.3165 10.8366 12.3782 10.8334 12.4393C10.8313 12.4699 10.8292 12.501 10.827 12.5338C10.8216 12.5954 10.8195 12.6587 10.8173 12.7198C10.813 12.8357 10.8098 12.9537 10.8098 13.0695C10.8098 13.1591 10.813 13.2487 10.8152 13.3404C10.8195 13.4305 10.8249 13.5195 10.8292 13.6119L10.8431 13.8103C10.8431 13.8431 10.8484 13.8762 10.8505 13.9117C11.0394 15.8716 11.8857 17.7876 13.3844 19.2836C14.292 20.1917 15.354 20.8611 16.4836 21.2886C16.8258 20.9115 17.1048 20.4749 17.3054 20.005C17.5124 19.5121 17.6304 18.9907 17.654 18.4527C16.887 18.177 16.1704 17.7334 15.5525 17.1155C14.9935 16.554 14.5752 15.9119 14.2973 15.2231C14.0989 14.7366 13.9712 14.2271 13.9154 13.7132C13.879 13.409 13.8704 13.1022 13.8843 12.7981C13.8886 12.7225 13.8939 12.6496 13.8982 12.5761C13.9036 12.522 13.9079 12.4677 13.9175 12.413C13.9175 12.3921 13.9218 12.3712 13.924 12.3498C13.9293 12.2977 13.9358 12.2436 13.9454 12.192C13.9572 12.1212 13.969 12.0478 13.9829 11.9775C14.0451 11.6562 14.1342 11.3403 14.2522 11.0334C14.2737 10.9771 14.2951 10.923 14.3209 10.8661C14.3445 10.8071 14.3702 10.7481 14.3981 10.6891C14.4217 10.6301 14.4496 10.5711 14.4807 10.5142C14.5064 10.4558 14.5375 10.3989 14.5708 10.3426C14.7264 10.0541 14.9099 9.77625 15.1201 9.51173C15.163 9.45759 15.2081 9.40345 15.2521 9.35135C15.3497 9.24033 15.4484 9.13198 15.5546 9.0258C15.6865 8.89383 15.8206 8.77099 15.9601 8.65779C16.4171 8.27803 16.918 7.98033 17.4437 7.76848C18.4746 7.35068 19.6096 7.24444 20.692 7.45467C21.7755 7.66491 22.8011 8.18311 23.6443 9.02573C24.2054 9.58732 24.6205 10.2293 24.8984 10.9176C25.3189 11.9485 25.4252 13.0813 25.2149 14.1643C25.0025 15.2467 24.4832 16.2728 23.6443 17.1155C23.4598 17.2995 23.2667 17.4696 23.0661 17.6202C23.0779 17.8278 23.0843 18.0354 23.0843 18.2403C23.0876 19.2975 22.9191 20.3396 22.5962 21.3309C23.7709 20.9061 24.8726 20.2222 25.8113 19.2835C27.5246 17.573 28.3882 15.3148 28.386 13.0695C28.3881 11.1959 27.7842 9.31641 26.588 7.74745L30.3084 4.02708V7.62891H32.6674V0H25.0401Z" fill="white"/>
</svg>
