<svg width="50" height="50" viewBox="0 0 50 50" fill="none" xmlns="http://www.w3.org/2000/svg">
<path fill-rule="evenodd" clip-rule="evenodd" d="M7 15V35C7 37.2092 8.79086 39 11 39H39C41.2092 39 43 37.2092 43 35V15C43 12.7909 41.2092 11 39 11H11C8.79086 11 7 12.7909 7 15Z" stroke="white" stroke-width="2.5" stroke-linecap="round" stroke-linejoin="round"/>
<path d="M31 21H37" stroke="white" stroke-width="2.5" stroke-linecap="round"/>
<path d="M31 27H37" stroke="white" stroke-width="2.5" stroke-linecap="round"/>
<path fill-rule="evenodd" clip-rule="evenodd" d="M23 21C23 23.2092 21.2092 25 19 25C16.7909 25 15 23.2092 15 21C15 18.7909 16.7909 17 19 17C20.0608 17 21.0782 17.4214 21.8284 18.1716C22.5786 18.9217 23 19.9391 23 21Z" stroke="white" stroke-width="2.5" stroke-linecap="round" stroke-linejoin="round"/>
<path d="M11 33C16.566 26.726 23.104 28.698 27 33" stroke="white" stroke-width="2.5" stroke-linecap="round"/>
</svg>
