<svg width="40" height="40" viewBox="0 0 40 40" fill="none" xmlns="http://www.w3.org/2000/svg">
<path d="M13.3333 13.3333H21.6666M13.3333 20H26.6666M13.3333 26.6666H18.3333M12 6.66663H28C29.8668 6.66663 30.8003 6.66663 31.5133 7.02994C32.1405 7.34951 32.6505 7.85944 32.97 8.48666C33.3333 9.19969 33.3333 10.1331 33.3333 12V28C33.3333 29.8668 33.3333 30.8003 32.97 31.5133C32.6505 32.1405 32.1405 32.6505 31.5133 32.97C30.8003 33.3333 29.8668 33.3333 28 33.3333H12C10.1331 33.3333 9.19969 33.3333 8.48666 32.97C7.85944 32.6505 7.34951 32.1405 7.02994 31.5133C6.66663 30.8003 6.66663 29.8668 6.66663 28V12C6.66663 10.1331 6.66663 9.19969 7.02994 8.48666C7.34951 7.85944 7.85944 7.34951 8.48666 7.02994C9.19969 6.66663 10.1331 6.66663 12 6.66663Z" stroke="white" stroke-width="2.5" stroke-linecap="round" stroke-linejoin="round"/>
</svg>
