<svg width="61" height="60" viewBox="0 0 61 60" fill="none" xmlns="http://www.w3.org/2000/svg">
<path d="M7.98166 29.9625C7.84476 36.4519 10.2857 42.731 14.7698 47.424C19.2538 52.1171 25.4152 54.8413 31.9042 55C36.1834 54.9523 40.3708 53.7526 44.0261 51.527C47.6814 49.3015 50.6697 46.1322 52.6767 42.3525C52.8917 41.9588 52.9969 41.5146 52.9811 41.0663C52.9654 40.618 52.8294 40.1822 52.5872 39.8046C52.3451 39.427 52.0059 39.1215 51.6051 38.9201C51.2043 38.7187 50.7566 38.6289 50.3092 38.66L50.0342 38.68C49.7067 38.705 49.3767 38.73 49.0342 38.73C43.8713 38.5718 38.9813 36.3745 35.4349 32.619C31.8884 28.8636 29.9743 23.856 30.1117 18.6925C30.1112 15.1995 30.9844 11.7619 32.6517 8.6925C32.8664 8.29923 32.9715 7.85546 32.956 7.40765C32.9405 6.95983 32.8048 6.52442 32.5633 6.14697C32.3219 5.76953 31.9834 5.46393 31.5833 5.26215C31.1832 5.06037 30.7362 4.96983 30.2892 5C24.1102 5.586 18.3802 8.48251 14.2444 13.1105C10.1087 17.7384 7.87206 23.7568 7.98166 29.9625ZM26.3392 10.8325C25.5311 13.3743 25.1196 16.0254 25.1192 18.6925C25.0206 24.6236 27.0576 30.3924 30.8586 34.9465C34.6595 39.5006 39.9711 42.5364 45.8242 43.5C44.105 45.5174 41.9724 47.1418 39.5708 48.2632C37.1692 49.3847 34.5546 49.977 31.9042 50C26.7412 49.8418 21.8513 47.6445 18.3049 43.889C14.7584 40.1336 12.8443 35.126 12.9817 29.9625C12.9232 25.7764 14.1812 21.6777 16.578 18.2452C18.9748 14.8127 22.3892 12.2197 26.3392 10.8325Z" fill="white"/>
</svg>
