<svg width="60" height="61" viewBox="0 0 60 61" fill="none" xmlns="http://www.w3.org/2000/svg">
<g clip-path="url(#clip0_38_375)">
<path d="M30 25.1747C38.2842 25.1747 45 31.8905 45 40.1747C45 42.907 44.2685 45.469 42.9927 47.6747H50C51.3807 47.6747 52.5 48.794 52.5 50.1747C52.5 51.5555 51.3807 52.6747 50 52.6747H10C8.6193 52.6747 7.5 51.5555 7.5 50.1747C7.5 48.794 8.6193 47.6747 10 47.6747H17.0078C15.7317 45.469 15 42.9072 15 40.1747C15 31.8905 21.7157 25.1747 30 25.1747ZM30 30.1747C24.4771 30.1747 20 34.6517 20 40.1747C20 42.9607 21.1378 45.4806 22.9808 47.2965L23.3864 47.6747H36.6147C38.6942 45.8392 40 43.1597 40 40.1747C40 34.6517 35.5228 30.1747 30 30.1747ZM52.5 37.6747C53.8807 37.6747 55 38.794 55 40.1747C55 41.5555 53.8807 42.6747 52.5 42.6747H50C48.6193 42.6747 47.5 41.5555 47.5 40.1747C47.5 38.794 48.6193 37.6747 50 37.6747H52.5ZM10 37.6747C11.3807 37.6747 12.5 38.794 12.5 40.1747C12.5 41.5555 11.3807 42.6747 10 42.6747H7.5C6.1193 42.6747 5 41.5555 5 40.1747C5 38.794 6.1193 37.6747 7.5 37.6747H10ZM12.3223 22.4969C13.2235 21.5957 14.6416 21.5263 15.6223 22.2889L15.8578 22.4969L17.6256 24.2646C18.6019 25.241 18.6019 26.824 17.6256 27.8002C16.7244 28.7014 15.3063 28.7707 14.3256 28.0082L14.09 27.8002L12.3223 26.0325C11.3459 25.0561 11.3459 23.4732 12.3223 22.4969ZM47.6777 22.4969C48.654 23.4732 48.654 25.0561 47.6777 26.0325L45.91 27.8002C44.9335 28.7765 43.3507 28.7765 42.3745 27.8002C41.398 26.824 41.398 25.241 42.3745 24.2647L44.1423 22.4969C45.1185 21.5206 46.7013 21.5206 47.6777 22.4969ZM31.7677 5.60694L37.071 10.9102C38.0475 11.8865 38.0475 13.4695 37.071 14.4458C36.0947 15.4221 34.5117 15.4221 33.5355 14.4458L32.5 13.4102V20.1747C32.5 21.5554 31.3808 22.6747 30 22.6747C28.6192 22.6747 27.5 21.5554 27.5 20.1747V13.4102L26.4645 14.4458C25.4883 15.4221 23.9052 15.4221 22.9289 14.4458C21.9526 13.4695 21.9526 11.8865 22.9289 10.9102L28.2323 5.60694C29.2085 4.63061 30.7915 4.63061 31.7677 5.60694Z" fill="white"/>
</g>
<defs>
<clipPath id="clip0_38_375">
<rect width="60" height="60" fill="white" transform="translate(0 0.174988)"/>
</clipPath>
</defs>
</svg>
