<svg width="30" height="30" viewBox="0 0 30 30" fill="none" xmlns="http://www.w3.org/2000/svg">
<path d="M16.25 3.75H10.25C8.84987 3.75 8.1498 3.75 7.61503 4.02249C7.14461 4.26216 6.76216 4.64461 6.52249 5.11503C6.25 5.6498 6.25 6.34987 6.25 7.75V22.25C6.25 23.6501 6.25 24.3503 6.52249 24.885C6.76216 25.3554 7.14461 25.7379 7.61503 25.9775C8.1498 26.25 8.84987 26.25 10.25 26.25H15M16.25 3.75L23.75 11.25M16.25 3.75V9.25C16.25 9.95006 16.25 10.3001 16.3863 10.5675C16.5061 10.8027 16.6972 10.9939 16.9325 11.1138C17.1999 11.25 17.5499 11.25 18.25 11.25H23.75M23.75 11.25V13.75M24.0858 24.0858L26.25 26.25M25 21.875C25 23.6009 23.6009 25 21.875 25C20.1491 25 18.75 23.6009 18.75 21.875C18.75 20.1491 20.1491 18.75 21.875 18.75C23.6009 18.75 25 20.1491 25 21.875Z" stroke="white" stroke-width="2" stroke-linecap="round" stroke-linejoin="round"/>
</svg>
