<svg width="60" height="60" viewBox="0 0 60 60" fill="none" xmlns="http://www.w3.org/2000/svg">
<path d="M10 52.5C10 42.835 17.835 35 27.5 35M46.25 50.5902C44.923 51.7777 43.171 52.5 41.25 52.5C37.1077 52.5 33.75 49.1423 33.75 45C33.75 40.8577 37.1077 37.5 41.25 37.5C44.5155 37.5 47.2937 39.587 48.3232 42.5M50 36.25V43.75H42.5M37.5 17.5C37.5 23.0229 33.0228 27.5 27.5 27.5C21.9771 27.5 17.5 23.0229 17.5 17.5C17.5 11.9771 21.9771 7.5 27.5 7.5C33.0228 7.5 37.5 11.9771 37.5 17.5Z" stroke="white" stroke-width="5" stroke-linecap="round" stroke-linejoin="round"/>
</svg>
