<svg width="60" height="60" viewBox="0 0 60 60" fill="none" xmlns="http://www.w3.org/2000/svg">
<path d="M46.25 48.75L50 52.5M10 52.5C10 42.835 17.835 35 27.5 35M47.5 43.75C47.5 47.2017 44.7017 50 41.25 50C37.7983 50 35 47.2017 35 43.75C35 40.2983 37.7983 37.5 41.25 37.5C44.7017 37.5 47.5 40.2983 47.5 43.75ZM37.5 17.5C37.5 23.0229 33.0228 27.5 27.5 27.5C21.9771 27.5 17.5 23.0229 17.5 17.5C17.5 11.9771 21.9771 7.5 27.5 7.5C33.0228 7.5 37.5 11.9771 37.5 17.5Z" stroke="white" stroke-width="5" stroke-linecap="round" stroke-linejoin="round"/>
</svg>
