<svg width="60" height="60" viewBox="0 0 60 60" fill="none" xmlns="http://www.w3.org/2000/svg">
<path d="M10 52.5C10 42.835 17.835 35 27.5 35C28.3488 35 29.1835 35.0605 30 35.1772M37.5 17.5C37.5 23.0229 33.0228 27.5 27.5 27.5C21.9771 27.5 17.5 23.0229 17.5 17.5C17.5 11.9771 21.9771 7.5 27.5 7.5C33.0228 7.5 37.5 11.9771 37.5 17.5ZM31.4745 52.5L36.537 51.4875C36.9785 51.3992 37.1992 51.355 37.405 51.2743C37.5877 51.2028 37.7612 51.1098 37.9222 50.9975C38.1035 50.871 38.2627 50.712 38.581 50.3935L48.9745 40C50.3552 38.6193 50.3552 36.3807 48.9745 35C47.594 33.6193 45.3552 33.6193 43.9745 35L33.581 45.3935C33.2627 45.712 33.1035 45.871 32.977 46.0525C32.8647 46.2132 32.772 46.387 32.7003 46.5697C32.6195 46.7755 32.5755 46.9963 32.487 47.4375L31.4745 52.5Z" stroke="white" stroke-width="5" stroke-linecap="round" stroke-linejoin="round"/>
</svg>
