<svg width="60" height="60" viewBox="0 0 60 60" fill="none" xmlns="http://www.w3.org/2000/svg">
<path d="M7.5 52.5C7.5 53.8807 8.6193 55 10 55C11.3807 55 12.5 53.8807 12.5 52.5H7.5ZM29.646 37.652C31.0128 37.8475 32.2792 36.898 32.4747 35.5312C32.6702 34.1645 31.7207 32.898 30.354 32.7025L29.646 37.652ZM43.225 43.2323C42.2485 44.2085 42.2485 45.7915 43.225 46.7677C44.2013 47.744 45.7843 47.744 46.7605 46.7677L43.225 43.2323ZM37.729 36.8767C37.385 38.214 38.1897 39.577 39.527 39.921C40.8642 40.2653 42.227 39.4602 42.5712 38.1233L37.729 36.8767ZM44.9928 50C43.612 50 42.4928 51.1193 42.4928 52.5C42.4928 53.8807 43.612 55 44.9928 55V50ZM45.0177 55C46.3985 55 47.5177 53.8807 47.5177 52.5C47.5177 51.1193 46.3985 50 45.0177 50V55ZM35 17.5C35 21.6421 31.6423 25 27.5 25V30C34.4035 30 40 24.4036 40 17.5H35ZM27.5 25C23.3579 25 20 21.6421 20 17.5H15C15 24.4036 20.5964 30 27.5 30V25ZM20 17.5C20 13.3579 23.3579 10 27.5 10V5C20.5964 5 15 10.5964 15 17.5H20ZM27.5 10C31.6423 10 35 13.3579 35 17.5H40C40 10.5964 34.4035 5 27.5 5V10ZM12.5 52.5C12.5 44.2158 19.2157 37.5 27.5 37.5V32.5C16.4543 32.5 7.5 41.4542 7.5 52.5H12.5ZM27.5 37.5C28.23 37.5 28.9465 37.552 29.646 37.652L30.354 32.7025C29.4205 32.569 28.4675 32.5 27.5 32.5V37.5ZM47.4925 38.75C47.4925 39.183 47.379 39.5133 46.694 40.1743C46.3098 40.545 45.8572 40.9132 45.2297 41.435C44.634 41.9307 43.9353 42.5218 43.225 43.2323L46.7605 46.7677C47.3 46.2282 47.8512 45.7583 48.4272 45.279C48.9717 44.8263 49.613 44.3057 50.1662 43.7717C51.3565 42.6232 52.4925 41.0785 52.4925 38.75H47.4925ZM44.9925 36.25C46.3732 36.25 47.4925 37.3693 47.4925 38.75H52.4925C52.4925 34.6077 49.1347 31.25 44.9925 31.25V36.25ZM42.5712 38.1233C42.849 37.0442 43.8312 36.25 44.9925 36.25V31.25C41.4945 31.25 38.5615 33.6425 37.729 36.8767L42.5712 38.1233ZM44.9928 55H45.0177V50H44.9928V55Z" fill="white"/>
</svg>
